<?xml version="1.0" encoding="UTF-8"?><svg id="b" xmlns="http://www.w3.org/2000/svg" width="51.4890136" height="59.6666667" viewBox="0 0 51.4890136 59.6666667"><g id="c"><path d="m49.8838259,59.6666667c.1896853-.1675723.3398008-.3011424.459276-.3904864,1.013586-.7539549,1.2760661-2.2437529,1.0909067-3.3088058l-.4701352-2.7204857c-.4038039-2.3420226-2.0331225-4.3778599-4.3580789-5.4451068l-9.8974424-4.5475038c-1.2151684-.5571551-1.5625966-2.3190059-1.5976366-2.4143004-.1071915-.1585242-.2885982-.253945-.5672409-.253945h-.0250843c-.2371392.0301273-.4313466.1907192-.49548.4105278l-1.1421132,4.008579-7.1361004,12.9499711-7.1182568-12.906913-1.161249-4.0516332c-.0618053-.2187748-.2565316-.3804006-.5824998-.4166046-.205329,0-.3939785.0973622-.5363382.3373464-.0033619.018104-.3470435,1.7778832-1.5655719,2.3369797l-9.8989951,4.5474999c-2.3240488,1.0681505-3.9528485,3.1029539-4.3569129,5.4451068l-.4701372,2.7204857c-.1846414,1.0660828.0780976,2.5558847,1.0912974,3.3088019.1192148.0893479.2688163.2218803.4582412.3904864h48.0974744" fill="#6eb7d1"/><path d="m30.4611934,16.205632c2.3985245,4.5013412,5.6832798,10.668204,7.1169626,11.5636111l.272049.1696419.9971669-7.7860936c.2733432-3.4202589-.8262327-6.6576886-3.0957131-9.1162092-2.4807619-2.6873832-6.1282005-4.2283881-10.006962-4.2283881-3.879018,0-7.5265868,1.5410049-10.0073487,4.2283881-2.2697428,2.4574868-3.3695733,5.6959502-3.0957151,9.1242253l.9071738,7.7078673.3034685-.3312677c.6259446-.6816732,1.7538327-1.3933434,3.1815709-2.2948272,3.302078-2.0840666,8.2651525-5.2161159,12.1633083-11.395003.3610023.6625363.7909284,1.4696303,1.2640388,2.358055Z" fill="#6eb7d1"/><path d="m5.8462389,31.3793156c.1671856.6956379.7830444,1.1815489,1.4975596,1.1815489.1207665,0,.2416632-.0151287.3601026-.0431864l2.5958393-.6234883c.4952215-.1184394.8960522-.4768611,1.0759102-.9537221l.1069311.0069823-.0486179-.1947263c.0584433-.244895.0599961-.4848772.0047845-.7158075l-1.3532605-5.6006558c-.3245438-1.9525681-.4891448-3.6219675-.4891448-4.9642386,0-8.9044147,7.2441955-16.1483517,16.1483498-16.1483517,8.9038978,0,16.1479631,7.243937,16.1479631,16.1483517,0,1.3412353-.164601,3.0116705-.5128066,5.0264325l-1.3295967,5.5384618c-.0195245.0823636-.0315478.1656348-.036204.2530414l-.0530137.1184394c-.0175831.0391773-1.8072331,3.9091452-7.3662553,5.0003124-.2885982-.5329783-.8452364-.8694171-1.4605783-.8694171h-3.3494016c-.9162239,0-1.6616437.7459368-1.6616437,1.6624171v1.3100722c0,.9164843.7454198,1.6624171,1.6616437,1.6624171h3.3494016c.6966717,0,1.3186073-.4437605,1.5557465-1.0951762,3.3271623-.5702161,5.5524245-1.9705399,6.8381937-3.0527892,1.3321852-1.1202606,2.1285472-2.2678034,2.519294-2.9252958l1.7379306.4166065c.1181809.0280576.2392069.0431864.3599724.0431864.7145152,0,1.3301136-.4859111,1.4972992-1.1815489l1.3297269-5.5384618c.19796-.8262307-.312779-1.6594438-1.138621-1.8581792l-.9599291-.2298964c.2278268-1.6202666.3434231-3.0597696.3434231-4.280626-.0002604-10.7362113-8.7355482-19.472018-19.4725408-19.472018S6.2724144,8.7358066,6.2724144,19.4722823c0,1.2207262.1154651,2.6602312.3432929,4.2795922l-.9607035.2309303c-.8259723.1987354-1.3364508,1.0319484-1.1381041,1.8581792l1.3293392,5.5383316Z" fill="#6eb7d1"/></g></svg>