<svg xmlns="http://www.w3.org/2000/svg" xmlns:xlink="http://www.w3.org/1999/xlink" viewBox="0 0 100 72.98"><defs><style>.cls-1{fill:url(#名称未設定グラデーション_1249);}.cls-2{fill:url(#名称未設定グラデーション_1249-2);}</style><linearGradient id="名称未設定グラデーション_1249" x1="16.85" y1="-12.3" x2="21.16" y2="50.74" gradientUnits="userSpaceOnUse"><stop offset="0" stop-color="#f8be57"/><stop offset="1" stop-color="#e84e56"/></linearGradient><linearGradient id="名称未設定グラデーション_1249-2" x1="59.18" y1="-15.19" x2="63.49" y2="47.84" xlink:href="#名称未設定グラデーション_1249"/></defs><g id="レイヤー_2" data-name="レイヤー 2"><g id="コンテンツ"><path class="cls-1" d="M16.61,30.61a34.48,34.48,0,0,1,3-14.13C7.66,20.24,0,29.59,0,40.55,0,50.71,5.64,59.49,16.71,63.69a1.12,1.12,0,0,1,.67,1.43,55,55,0,0,1-2.68,6.23A1.13,1.13,0,0,0,15.89,73a52.61,52.61,0,0,0,16.7-6.5,1.06,1.06,0,0,1,.51-.14A58.85,58.85,0,0,0,42.66,65C26.93,59.51,16.63,46.09,16.61,30.61Z"/><path class="cls-2" d="M81.21,57.42C93.47,52.24,100,42.14,100,30.53,100,13.65,84.2,0,62.28,0S24.6,13.72,24.62,30.6c0,16.44,14.88,29.83,36,30.49a.88.88,0,0,1,.47.16c5.37,4,12,9,21.12,11.18a1.32,1.32,0,0,0,1.41-1.91c-.78-1.56-2.81-6.35-4-9.47A2.84,2.84,0,0,1,81.21,57.42Z"/></g></g></svg>