<svg xmlns="http://www.w3.org/2000/svg" xmlns:xlink="http://www.w3.org/1999/xlink" viewBox="0 0 74.45 80.52"><defs><style>.cls-1{fill:url(#名称未設定グラデーション_5);}.cls-2{fill:url(#名称未設定グラデーション_5-3);}.cls-3{fill:url(#名称未設定グラデーション_5-5);}.cls-4{fill:url(#名称未設定グラデーション_5-6);}.cls-5{fill:url(#名称未設定グラデーション_5-7);}</style><linearGradient id="名称未設定グラデーション_5" x1="37.22" y1="132.99" x2="37.22" y2="6.84" gradientUnits="userSpaceOnUse"><stop offset="0" stop-color="#6cb5d1"/><stop offset="1" stop-color="#b9cc66"/></linearGradient><linearGradient id="名称未設定グラデーション_5-3" x1="12.01" y1="132.99" x2="12.01" y2="6.84" xlink:href="#名称未設定グラデーション_5"/><linearGradient id="名称未設定グラデーション_5-5" x1="62.43" y1="132.99" x2="62.43" y2="6.84" xlink:href="#名称未設定グラデーション_5"/><linearGradient id="名称未設定グラデーション_5-6" x1="62.43" y1="132.99" x2="62.43" y2="6.84" xlink:href="#名称未設定グラデーション_5"/><linearGradient id="名称未設定グラデーション_5-7" x1="37.22" y1="132.99" x2="37.22" y2="6.84" xlink:href="#名称未設定グラデーション_5"/></defs><g id="レイヤー_2" data-name="レイヤー 2"><g id="コンテンツ"><path class="cls-1" d="M37.22,18.6a9.3,9.3,0,1,0-9.29-9.3A9.3,9.3,0,0,0,37.22,18.6Z"/><path class="cls-1" d="M37.22,35.89c6.39,0,12.93-2.21,11.91-8.34a17.15,17.15,0,0,0-4-7.53,1.85,1.85,0,0,0-1.37-.1,12.36,12.36,0,0,1-13,0,1.85,1.85,0,0,0-1.37.1,17.05,17.05,0,0,0-4,7.53C24.3,33.68,30.84,35.89,37.22,35.89Z"/><path class="cls-2" d="M12,63.23a9.3,9.3,0,1,0-9.3-9.3A9.3,9.3,0,0,0,12,63.23Z"/><path class="cls-2" d="M19.88,64.65a1.82,1.82,0,0,0-1.36-.1,12.36,12.36,0,0,1-13,0,1.85,1.85,0,0,0-1.37.1,17.05,17.05,0,0,0-4,7.53c-1,6.13,5.52,8.34,11.9,8.34s12.93-2.21,11.91-8.34A17.07,17.07,0,0,0,19.88,64.65Z"/><path class="cls-3" d="M62.43,63.23a9.3,9.3,0,1,0-9.29-9.3A9.3,9.3,0,0,0,62.43,63.23Z"/><path class="cls-4" d="M74.34,72.18a17.05,17.05,0,0,0-4-7.53,1.85,1.85,0,0,0-1.37-.1,12.36,12.36,0,0,1-13,0,1.85,1.85,0,0,0-1.37.1,17.05,17.05,0,0,0-4,7.53c-1,6.13,5.52,8.34,11.9,8.34S75.36,78.31,74.34,72.18Z"/><path class="cls-5" d="M49.84,58.34l-11.08-6.4V39.14a1.54,1.54,0,0,0-3.07,0v12.8l-11.08,6.4A1.53,1.53,0,1,0,26.14,61l11.08-6.4L48.31,61a1.53,1.53,0,0,0,1.53-2.66Z"/></g></g></svg>