<svg xmlns="http://www.w3.org/2000/svg" viewBox="0 0 167.75 25.09"><defs><style>.cls-1{fill:#fff;}</style></defs><g id="レイヤー_2" data-name="レイヤー 2"><g id="ヘッダー"><path class="cls-1" d="M0,13.77C0,6.39,5,2.14,10.88,2.14A9.48,9.48,0,0,1,18,5l-2.79,3.2A5.55,5.55,0,0,0,11.05,6.7c-3.26,0-5.64,2.58-5.64,6.86s2,7,6.11,7A3.68,3.68,0,0,0,13.63,20V16.39H10.1V12.07h8.22V22.4A10.78,10.78,0,0,1,11,25.09C4.83,25.09,0,21.25,0,13.77Z"/><path class="cls-1" d="M22.37,19.21V.92h5.24V19.41c0,1.09.54,1.43.95,1.43a2,2,0,0,0,.61-.07l.61,3.88a6.92,6.92,0,0,1-2.61.44C23.56,25.09,22.37,22.74,22.37,19.21Z"/><path class="cls-1" d="M31.28,16.22c0-5.61,4-8.84,8.26-8.84s8.3,3.23,8.3,8.84-4,8.87-8.3,8.87S31.28,21.83,31.28,16.22Zm11.15,0c0-2.79-.92-4.63-2.89-4.63s-2.89,1.84-2.89,4.63.92,4.62,2.89,4.62S42.43,19,42.43,16.22Z"/><path class="cls-1" d="M55.83,22.88h-.14l-.41,1.8H51.17V.92H56.4V6.63l-.1,2.55a6.64,6.64,0,0,1,4.35-1.8c4.08,0,6.63,3.36,6.63,8.56,0,5.82-3.43,9.15-7.07,9.15A6,6,0,0,1,55.83,22.88ZM61.88,16c0-3-.89-4.35-2.76-4.35a3.62,3.62,0,0,0-2.72,1.43v6.7a3.78,3.78,0,0,0,2.55,1C60.59,20.77,61.88,19.45,61.88,16Z"/><path class="cls-1" d="M69.29,20c0-3.57,2.75-5.51,9.42-6.19-.14-1.39-.85-2.21-2.59-2.21A9.06,9.06,0,0,0,71.7,13l-1.83-3.4a13.73,13.73,0,0,1,7.27-2.21c4.36,0,6.8,2.41,6.8,7.71v9.59H79.66L79.29,23h-.14a7.05,7.05,0,0,1-4.83,2.11A4.9,4.9,0,0,1,69.29,20Zm9.42-.28V17c-3.37.44-4.39,1.36-4.39,2.55,0,1,.65,1.46,1.8,1.46A3.52,3.52,0,0,0,78.71,19.68Z"/><path class="cls-1" d="M88.06,19.21V.92h5.23V19.41c0,1.09.55,1.43,1,1.43a2,2,0,0,0,.61-.07l.61,3.88a7,7,0,0,1-2.62.44C89.25,25.09,88.06,22.74,88.06,19.21Z"/><path class="cls-1" d="M105.13,2.55h8.12c4.69,0,8.64,1.63,8.64,7a6.59,6.59,0,0,1-3.81,6.39L123,24.68h-5.92L113,16.9h-2.58v7.78h-5.3Zm7.71,10.16c2.52,0,3.88-1.08,3.88-3.19s-1.36-2.79-3.88-2.79h-2.41v6Z"/><path class="cls-1" d="M124.71,2.69a3,3,0,0,1,5.92,0,3,3,0,0,1-5.92,0Zm.34,5.1h5.24V24.68h-5.24Z"/><path class="cls-1" d="M133.72,16.22c0-5.51,3.47-8.84,7-8.84a5.38,5.38,0,0,1,4.08,1.73L144.6,6.6V.92h5.27V24.68h-4.32l-.37-1.63h-.1a6.63,6.63,0,0,1-4.46,2C136.44,25.09,133.72,21.72,133.72,16.22Zm10.88,3.16V12.65a4,4,0,0,0-2.65-1c-1.5,0-2.82,1.36-2.82,4.52s1.08,4.59,2.89,4.59A2.94,2.94,0,0,0,144.6,19.38Z"/><path class="cls-1" d="M152.49,16.22c0-5.48,3.94-8.84,8-8.84,4.89,0,7.27,3.53,7.27,8.12a12.44,12.44,0,0,1-.2,2.31h-10a3.88,3.88,0,0,0,4.21,3.27A7.33,7.33,0,0,0,165.44,20l1.7,3.17a11,11,0,0,1-6.08,1.9C156.23,25.09,152.49,21.86,152.49,16.22Zm10.78-1.94c0-1.67-.75-2.93-2.66-2.93a3.12,3.12,0,0,0-3.09,2.93Z"/></g></g></svg>