<svg xmlns="http://www.w3.org/2000/svg" xmlns:xlink="http://www.w3.org/1999/xlink" viewBox="0 0 370.6 98.24"><defs><style>.cls-1{fill:#231815;}.cls-2{fill:url(#名称未設定グラデーション_5);}</style><linearGradient id="名称未設定グラデーション_5" x1="114.32" y1="49.12" x2="309.09" y2="49.12" gradientUnits="userSpaceOnUse"><stop offset="0" stop-color="#6db7d2"/><stop offset="1" stop-color="#bacd67"/></linearGradient></defs><g id="レイヤー_2" data-name="レイヤー 2"><g id="B"><polygon class="cls-1" points="47.63 0.41 0 0.41 0 18.83 13.8 18.83 13.8 97.42 33.83 97.42 33.83 18.83 47.63 18.83 47.63 0.41"/><polygon class="cls-1" points="108 97.42 60.37 97.42 60.37 0.42 80.4 0.42 80.4 79 108 79 108 97.42"/><polygon class="cls-1" points="370.6 18.76 370.6 0.34 322.97 0.34 322.97 97.5 370.6 97.5 370.6 79.08 343 79.08 343 58.49 370.34 58.49 370.34 40.07 343 40.07 343 18.76 370.6 18.76"/><path class="cls-2" d="M286.75,66.14a30.36,30.36,0,0,1-13.4,11,28.16,28.16,0,0,1-3.81,1.33,30.37,30.37,0,0,1-28.92-7.24c-.64-.61-1.53-1.53-2.51-2.67l-.81-1A30.32,30.32,0,0,1,238,29.84c0-.06.1-.13.15-.18.73-.82,1.4-1.56,2-2.13.21-.2.41-.41.63-.61.61-.58,1.26-1.13,1.92-1.65.13-.11.27-.2.4-.3.56-.43,1.14-.84,1.74-1.24l.45-.3a32.15,32.15,0,0,1,4.87-2.54,31.1,31.1,0,0,1,11.43-2.22,30.87,30.87,0,0,1,17,5.21A30.78,30.78,0,0,1,289.43,37h19.66c-.2-.82-.41-1.65-.65-2.46a50.42,50.42,0,0,0-6.19-12.86A49.21,49.21,0,0,0,243,3.59a49.62,49.62,0,0,0-15.24,9.81c-1.3,1.24-2.5,2.54-3.78,4s-2.54,3-3.81,4.61c-.47.63-.95,1.26-1.42,1.9l-3.5,4.9c-2.9,2.79-5.43,0-6.14-1l-.21-.29-1.36-1.84c-2.19-2.92-4.45-5.81-6.64-8.32a51.87,51.87,0,0,0-3.78-4,49.49,49.49,0,0,0-13.87-9.21c-.45-.22-.89-.41-1.37-.6A49,49,0,0,0,163.43,0,49.15,49.15,0,0,0,136,8.39a49.27,49.27,0,0,0-19.46,55.33,48.68,48.68,0,0,0,6.19,12.86,49.08,49.08,0,0,0,74.45,8.26,46.91,46.91,0,0,0,3.78-4c1.27-1.43,2.54-3,3.81-4.6l1.43-1.88c-1.81-2.63-5.11-7.49-10.35-15.17-.29-.42-.54-.8-.79-1.18-.8,1.11-1.59,2.22-2.42,3.3-2,2.7-4.06,5.3-5.78,7.27-1,1.11-1.87,2.06-2.5,2.67a30.24,30.24,0,0,1-20.9,8.32,30.06,30.06,0,0,1-9-1.4,29.27,29.27,0,0,1-8-3.81,30.62,30.62,0,0,1-11-13.4c-.35-.83-.66-1.68-.94-2.55h27.31V40H134.37a30.55,30.55,0,0,1,29.06-21.36,32.32,32.32,0,0,1,8.83,1.3c.89.29,1.75.58,2.61.92a31.29,31.29,0,0,1,9.46,6.1,36.42,36.42,0,0,1,2.5,2.67c1,1.11,2.07,2.44,3.18,3.87,2.22,2.86,4.63,6.13,6.8,9.18.31.44.63.88.92,1.3,1.3,1.87,17.08,25,18.28,26.7l1.37,1.81c2.19,2.92,4.44,5.81,6.63,8.32a52.18,52.18,0,0,0,3.78,4l0,0A50,50,0,0,0,243,94.65,49.44,49.44,0,0,0,276.11,96,50.49,50.49,0,0,0,289,89.86a49.4,49.4,0,0,0,17.77-21.63,47.93,47.93,0,0,0,2-5.84h-19.9A30.36,30.36,0,0,1,286.75,66.14Z"/></g></g></svg>